<svg width="17" height="31" viewBox="0 0 17 31" fill="none" xmlns="http://www.w3.org/2000/svg">
<path d="M16.345 20.8951C16.345 22.0151 16.065 23.0884 15.505 24.1151C14.945 25.1184 14.1167 25.9584 13.02 26.6351C11.9467 27.3117 10.6517 27.6967 9.135 27.7901V30.6251H7.245V27.7901C5.12167 27.6034 3.395 26.9267 2.065 25.7601C0.735002 24.5701 0.058335 23.0651 0.0350017 21.2451H3.43C3.52333 22.2251 3.885 23.0767 4.515 23.8001C5.16834 24.5234 6.07834 24.9784 7.245 25.1651V16.4151C5.68167 16.0184 4.42167 15.6101 3.465 15.1901C2.50834 14.7701 1.69167 14.1167 1.015 13.2301C0.338335 12.3434 1.60933e-06 11.1534 1.60933e-06 9.66008C1.60933e-06 7.77008 0.653335 6.20674 1.96 4.97008C3.29 3.73341 5.05167 3.04508 7.245 2.90508V7.64728e-05H9.135V2.90508C11.1183 3.06841 12.7167 3.71008 13.93 4.83008C15.1433 5.92674 15.8433 7.36174 16.03 9.13508H12.635C12.5183 8.31841 12.1567 7.58341 11.55 6.93008C10.9433 6.25341 10.1383 5.81008 9.135 5.60008V14.1401C10.675 14.5367 11.9233 14.9451 12.88 15.3651C13.86 15.7617 14.6767 16.4034 15.33 17.2901C16.0067 18.1767 16.345 19.3784 16.345 20.8951ZM3.255 9.48508C3.255 10.6284 3.59334 11.5034 4.27 12.1101C4.94667 12.7167 5.93834 13.2184 7.245 13.6151V5.53008C6.03167 5.64674 5.06334 6.04341 4.34 6.72008C3.61667 7.37341 3.255 8.29508 3.255 9.48508ZM9.135 25.2001C10.395 25.0601 11.375 24.6051 12.075 23.8351C12.7983 23.0651 13.16 22.1434 13.16 21.0701C13.16 19.9267 12.81 19.0517 12.11 18.4451C11.41 17.8151 10.4183 17.3134 9.135 16.9401V25.2001Z" fill="white"/>
</svg>
