<svg width="41" height="24" viewBox="0 0 41 24" fill="none" xmlns="http://www.w3.org/2000/svg">
<path d="M21.156 7.8C20.9783 7.8052 20.8075 7.8754 20.6818 7.9976L17.0765 11.4166L14.8557 9.3106C14.2338 8.6944 13.2293 9.646 13.8785 10.2362L16.5886 12.8076C16.8578 13.0637 17.2952 13.0637 17.5658 12.8076L21.6589 8.9245C22.1099 8.5085 21.7778 7.8 21.1574 7.8H21.156ZM0.683333 13H4.78333C5.1619 13 5.46667 13.2899 5.46667 13.65C5.46667 14.0101 5.1619 14.3 4.78333 14.3H0.683333C0.304767 14.3 0 14.0101 0 13.65C0 13.2899 0.304767 13 0.683333 13ZM0.683333 7.8H4.78333C5.1619 7.8 5.46667 8.0899 5.46667 8.45C5.46667 8.8101 5.1619 9.1 4.78333 9.1H0.683333C0.304767 9.1 0 8.8101 0 8.45C0 8.0899 0.304767 7.8 0.683333 7.8ZM0.683333 2.6H4.78333C5.1619 2.6 5.46667 2.8899 5.46667 3.25C5.46667 3.6101 5.1619 3.9 4.78333 3.9H0.683333C0.304767 3.9 0 3.6101 0 3.25C0 2.8899 0.304767 2.6 0.683333 2.6ZM33.4833 16.9C31.6042 16.9 30.0667 18.3625 30.0667 20.15C30.0667 21.9375 31.6042 23.4 33.4833 23.4C35.3625 23.4 36.9 21.9375 36.9 20.15C36.9 18.3625 35.3625 16.9 33.4833 16.9ZM33.4833 18.2C34.6231 18.2 35.5333 19.0658 35.5333 20.15C35.5333 21.2342 34.6231 22.1 33.4833 22.1C32.3435 22.1 31.4333 21.2342 31.4333 20.15C31.4333 19.0658 32.3435 18.2 33.4833 18.2ZM15.7167 16.9C13.8375 16.9 12.3 18.3625 12.3 20.15C12.3 21.9375 13.8375 23.4 15.7167 23.4C17.5958 23.4 19.1333 21.9375 19.1333 20.15C19.1333 18.3625 17.5958 16.9 15.7167 16.9ZM15.7167 18.2C16.8565 18.2 17.7667 19.0658 17.7667 20.15C17.7667 21.2342 16.8565 22.1 15.7167 22.1C14.5769 22.1 13.6667 21.2342 13.6667 20.15C13.6667 19.0658 14.5769 18.2 15.7167 18.2ZM8.88333 0C7.75993 0 6.83333 0.8814 6.83333 1.95V16.25C6.83333 17.3186 7.75993 18.2 8.88333 18.2H11.6167C12.5405 18.213 12.5405 16.887 11.6167 16.9H8.88333C8.49247 16.9 8.2 16.6218 8.2 16.25V1.95C8.2 1.5782 8.49247 1.3 8.88333 1.3H26.65C27.0409 1.3 27.3333 1.5782 27.3333 1.95V16.9H19.8167C18.9147 16.9 18.9311 18.213 19.8167 18.2H29.3833C30.2853 18.2 30.2771 16.9 29.3833 16.9H28.7V5.2H34.4769L39.6333 12.8648V16.25C39.6333 16.6218 39.3409 16.9 38.95 16.9H37.5833C36.6895 16.9 36.6895 18.2 37.5833 18.2H38.95C40.0734 18.2 41 17.3186 41 16.25V12.675C41 12.5515 40.9631 12.428 40.8934 12.324L35.4267 4.199C35.301 4.0131 35.0851 3.9 34.85 3.9H28.7V1.95C28.7 0.8814 27.7734 0 26.65 0H8.88333Z" fill="white"/>
</svg>
