<svg width="40" height="40" viewBox="0 0 40 40" fill="none" xmlns="http://www.w3.org/2000/svg">
<path d="M20 38.6182C30.2825 38.6182 38.6182 30.2826 38.6182 20C38.6182 9.71748 30.2825 1.38184 20 1.38184C9.71746 1.38184 1.38182 9.71748 1.38182 20C1.38182 30.2826 9.71746 38.6182 20 38.6182Z" fill="#3F65A6"/>
<path d="M17.1709 13.8765C17.1709 14.4146 17.1709 16.8146 17.1709 16.8146H15.0182V20.4074H17.1709V30.2546H21.5927V20.4001H24.56C24.56 20.4001 24.8364 18.6765 24.9746 16.7928C24.5891 16.7928 21.6146 16.7928 21.6146 16.7928C21.6146 16.7928 21.6146 14.7056 21.6146 14.3346C21.6146 13.971 22.0946 13.4765 22.5746 13.4765C23.0473 13.4765 24.0509 13.4765 24.9818 13.4765C24.9818 12.9892 24.9818 11.2946 24.9818 9.73828C23.7382 9.73828 22.3273 9.73828 21.7091 9.73828C17.0618 9.74555 17.1709 13.3383 17.1709 13.8765Z" fill="white"/>
</svg>
