<svg width="40" height="40" viewBox="0 0 40 40" fill="none" xmlns="http://www.w3.org/2000/svg">
<path d="M20.725 23.8834L4.8625 13.7887C4.04244 13.2464 3.46816 12.4037 3.26333 11.4421C3.0585 10.4805 3.2395 9.47693 3.76737 8.64748C4.29523 7.81803 5.12773 7.22906 6.08559 7.0074C7.04345 6.78574 8.05005 6.94912 8.88863 7.46236L20.5261 14.8677L30.975 7.55336C31.7902 7.00093 32.79 6.79134 33.7585 6.96986C34.7269 7.14839 35.5863 7.70069 36.1509 8.50748C36.7156 9.31428 36.9403 10.3108 36.7764 11.2818C36.6125 12.2529 36.0732 13.1205 35.275 13.6972L20.725 23.8834Z" fill="#EA4435"/>
<path d="M34.3751 33.126H29.3751L29.3751 10.626C29.3751 9.63141 29.7702 8.67759 30.4735 7.97433C31.1767 7.27106 32.1306 6.87598 33.1251 6.87598C34.1197 6.87598 35.0735 7.27106 35.7768 7.97433C36.48 8.67759 36.8751 9.63141 36.8751 10.626V30.626C36.8751 31.289 36.6117 31.9249 36.1429 32.3937C35.674 32.8626 35.0382 33.126 34.3751 33.126Z" fill="#00AC47"/>
<path d="M36.8202 10.0821C36.8092 10.0071 36.8101 9.93043 36.7945 9.85556C36.7705 9.74081 36.7259 9.63481 36.6916 9.52406C36.6584 9.3973 36.6184 9.27241 36.5719 9.14993C36.5469 9.09056 36.5084 9.03843 36.48 8.98068C36.4022 8.81405 36.3122 8.65341 36.2107 8.50006C36.1607 8.42743 36.0982 8.36556 36.043 8.29681C35.9482 8.17185 35.8457 8.05292 35.7361 7.94068C35.653 7.85981 35.5582 7.79218 35.4679 7.71931C35.3718 7.63695 35.2717 7.55948 35.1679 7.48718C35.0687 7.42243 34.9602 7.37256 34.8554 7.31731C34.7449 7.25968 34.6366 7.19693 34.5216 7.15093C34.4105 7.10618 34.292 7.07768 34.1759 7.04356C34.0597 7.00943 33.9442 6.96856 33.825 6.94643C33.6773 6.9227 33.5282 6.90767 33.3787 6.90143C33.2839 6.89481 33.1899 6.87818 33.0946 6.87893C32.9178 6.88408 32.7415 6.90184 32.5672 6.93206C32.4969 6.94256 32.426 6.94168 32.3561 6.95618C32.1203 7.02825 31.885 7.10242 31.6505 7.17868C31.5861 7.20618 31.5297 7.24706 31.4674 7.27806C30.8326 7.57425 30.2972 8.04796 29.9259 8.64192C29.5546 9.23588 29.3632 9.92468 29.375 10.6251V17.8276L35.275 13.6972C35.8544 13.3083 36.3086 12.7599 36.5828 12.1183C36.857 11.4766 36.9397 10.7695 36.8202 10.0821Z" fill="#FFBA00"/>
<path d="M6.875 6.875C7.86956 6.875 8.82339 7.27009 9.52665 7.97335C10.2299 8.67661 10.625 9.63044 10.625 10.625V33.125H5.625C4.96196 33.125 4.32607 32.8616 3.85723 32.3928C3.38839 31.9239 3.125 31.288 3.125 30.625V10.625C3.125 9.63044 3.52009 8.67661 4.22335 7.97335C4.92661 7.27009 5.88044 6.875 6.875 6.875Z" fill="#4285F4"/>
<path d="M3.17986 10.082C3.19086 10.007 3.18999 9.93033 3.20561 9.85545C3.22961 9.7407 3.27424 9.6347 3.30849 9.52395C3.34169 9.39724 3.38167 9.27239 3.42824 9.14995C3.45324 9.09058 3.49174 9.03845 3.52024 8.9807C3.59796 8.81401 3.68796 8.65332 3.78949 8.49995C3.83949 8.42733 3.90199 8.36545 3.95724 8.2967C4.05201 8.17175 4.15446 8.05282 4.26399 7.94058C4.34711 7.8597 4.44186 7.79208 4.53236 7.7192C4.62839 7.63682 4.72851 7.55934 4.83236 7.48708C4.93149 7.42233 5.03999 7.37245 5.14486 7.3172C5.25324 7.2559 5.36463 7.20008 5.47862 7.14995C5.58986 7.1052 5.70836 7.0767 5.82436 7.04258C5.94037 7.00845 6.05599 6.96758 6.17524 6.94545C6.32298 6.92173 6.47199 6.9067 6.62149 6.90045C6.71649 6.89383 6.81036 6.8772 6.90561 6.87795C7.08245 6.8831 7.25869 6.90085 7.43299 6.93108C7.50337 6.94158 7.57424 6.9407 7.64424 6.9552C7.76523 6.98603 7.88456 7.02308 8.00174 7.0662C8.11957 7.09752 8.23576 7.13474 8.34986 7.1777C8.41411 7.2052 8.47049 7.24608 8.53299 7.27708C8.69502 7.3532 8.85135 7.44093 9.00074 7.53958C9.50153 7.88344 9.91111 8.34403 10.1941 8.88158C10.4771 9.41912 10.625 10.0175 10.625 10.625V17.8275L4.72499 13.6973C4.14571 13.3084 3.69151 12.7599 3.4173 12.1183C3.1431 11.4767 3.06063 10.7694 3.17986 10.082Z" fill="#C52528"/>
</svg>
