<svg width="40" height="40" viewBox="0 0 40 40" fill="none" xmlns="http://www.w3.org/2000/svg">
<g clip-path="url(#clip0_1_65)">
<path fill-rule="evenodd" clip-rule="evenodd" d="M36.6667 11.6668C36.6667 7.06516 32.935 3.3335 28.3333 3.3335C23.2433 3.3335 16.7567 3.3335 11.6667 3.3335C7.065 3.3335 3.33334 7.06516 3.33334 11.6668C3.33334 16.7568 3.33334 23.2435 3.33334 28.3335C3.33334 32.9352 7.065 36.6668 11.6667 36.6668C16.7567 36.6668 23.2433 36.6668 28.3333 36.6668C32.935 36.6668 36.6667 32.9352 36.6667 28.3335C36.6667 23.2435 36.6667 16.7568 36.6667 11.6668Z" fill="url(#paint0_radial_1_65)"/>
<path d="M24.93 8.34176C28.415 8.37509 31.6233 11.3668 31.6583 15.0701C31.67 18.3568 31.67 21.6434 31.6583 24.9301C31.625 28.4018 28.6333 31.6234 24.93 31.6584C21.6433 31.6701 18.3567 31.6701 15.07 31.6584C11.5833 31.6251 8.37667 28.6334 8.34167 24.9301C8.33 21.6434 8.33 18.3568 8.34167 15.0701C8.37333 11.5818 11.3583 8.37676 15.07 8.34176C18.3567 8.33009 21.6433 8.33009 24.93 8.34176ZM15.115 9.91676C12.41 9.92509 9.94333 12.2701 9.91667 15.0801C9.90667 18.3601 9.90667 21.6401 9.91667 24.9201C9.94167 27.5951 12.23 30.0568 15.08 30.0834C18.36 30.0934 21.64 30.0934 24.92 30.0834C27.6017 30.0584 30.0567 27.7701 30.0833 24.9201C30.0933 21.6401 30.0933 18.3601 30.0833 15.0801C30.0583 12.3868 27.725 9.94342 24.92 9.91676C21.6517 9.90676 18.3833 9.91676 15.115 9.91676Z" fill="white"/>
<path d="M20.04 14.1665C22.7367 14.1915 25.25 16.2715 25.7433 18.9365C26.095 20.8365 25.4317 22.8965 24.0317 24.2332C22.4733 25.7165 20.0617 26.2465 17.995 25.4898C15.685 24.6448 14.06 22.2098 14.1683 19.7432C14.3 16.7965 16.9033 14.1765 20 14.1665C20.0133 14.1665 20.0267 14.1665 20.04 14.1665ZM19.9733 15.7448C18.0483 15.7632 16.2333 17.2232 15.8333 19.1198C15.4283 21.0382 16.5317 23.1665 18.3433 23.9315C20.3217 24.7682 22.8767 23.8298 23.8317 21.8765C24.82 19.8582 23.8883 17.1165 21.8017 16.1415C21.2333 15.8765 20.6017 15.7432 19.9733 15.7448Z" fill="white"/>
<path fill-rule="evenodd" clip-rule="evenodd" d="M27.5 13.7117C27.5 13.39 27.3717 13.0817 27.145 12.855C26.9183 12.6283 26.61 12.5 26.2883 12.5C26.2633 12.5 26.2367 12.5 26.2117 12.5C25.89 12.5 25.5817 12.6283 25.355 12.855C25.1283 13.0817 25 13.39 25 13.7117C25 13.725 25 13.7367 25 13.75C25 14.0817 25.1317 14.4 25.3667 14.6333C25.6 14.8683 25.9183 15 26.25 15C26.94 15 27.5 14.44 27.5 13.75C27.5 13.7367 27.5 13.725 27.5 13.7117Z" fill="white"/>
</g>
<defs>
<radialGradient id="paint0_radial_1_65" cx="0" cy="0" r="1" gradientUnits="userSpaceOnUse" gradientTransform="translate(3.33334 35.8335) scale(46.555)">
<stop stop-color="#FF8100"/>
<stop offset="0.19" stop-color="#FF7209"/>
<stop offset="0.32" stop-color="#F55E16"/>
<stop offset="0.48" stop-color="#D92938"/>
<stop offset="1" stop-color="#9100FF"/>
</radialGradient>
<clipPath id="clip0_1_65">
<rect width="40" height="40" fill="white"/>
</clipPath>
</defs>
</svg>
