<svg width="24" height="24" viewBox="0 0 24 24" fill="none" xmlns="http://www.w3.org/2000/svg">
<path d="M8.7654 19.6086C8.48756 19.6066 8.23478 19.6661 7.99399 19.8167C7.48831 20.1331 6.97218 20.4303 6.47208 20.7566C5.25961 21.548 4.05462 22.3528 2.845 23.1494C2.49945 23.3769 2.14831 23.5943 1.79978 23.8165C1.76106 23.8411 1.724 23.8695 1.68361 23.8904C1.40778 24.0333 1.14289 24.0401 1.05617 23.8893C0.94641 23.6985 1.03479 23.5142 1.09929 23.33C1.53192 22.0948 2.03035 20.891 2.54435 19.6944C2.74415 19.2292 2.95536 18.7696 3.15349 18.3035C3.41221 17.6951 3.40984 17.6924 2.99527 17.2261C2.19499 16.3259 1.47252 15.361 0.954488 14.2333C0.457478 13.1512 0.160983 12.0095 0.0501537 10.7982C-0.0445204 9.76349 -0.00864637 8.74566 0.187592 7.73458C0.632335 5.44288 1.71628 3.57208 3.3704 2.09651C4.37689 1.19853 5.53484 0.626513 6.79946 0.309115C7.61138 0.105212 8.43161 0.0196035 9.26693 0.0250514C10.9939 0.0364658 12.721 0.023884 14.4479 0.00105514C15.4408 -0.0121752 16.418 0.0985965 17.38 0.356977C18.014 0.527156 18.6103 0.809403 19.1875 1.14237C20.7613 2.05046 21.9501 3.38115 22.8022 5.07645C23.4243 6.314 23.7965 7.64184 23.9503 9.04257C24.0066 9.55492 24.0217 10.0701 23.9605 10.5821C23.8117 11.8261 23.5525 13.0362 23.0205 14.1622C22.3423 15.5974 21.4636 16.8459 20.2519 17.7972C18.8082 18.9303 17.2004 19.5346 15.4251 19.5929C14.3493 19.628 9.90898 19.6166 8.7654 19.6086ZM6.93167 8.18247C5.93337 8.0931 5.36616 9.09212 5.36866 9.81083C5.37174 10.7306 6.05525 11.4693 6.89984 11.4963C7.64559 11.5201 8.36069 10.9508 8.40809 9.80772C8.44788 8.84697 7.61696 8.08402 6.93167 8.18247ZM12.1443 11.4934C12.8923 11.5751 13.5968 10.8559 13.5889 9.78528C13.5815 8.78756 12.8223 8.16923 12.1091 8.16794C11.1114 8.16612 10.5652 9.06929 10.5647 9.81187C10.5641 10.6189 11.2059 11.5977 12.1443 11.4934ZM17.196 11.4917C18.0535 11.564 18.6976 10.8547 18.6951 9.84988C18.6928 8.88614 18.1006 8.21788 17.2678 8.17741C16.3448 8.13266 15.6912 8.99898 15.6908 9.87556C15.6904 10.5507 16.3014 11.584 17.196 11.4917Z" fill="white"/>
</svg>
